<svg xmlns="http://www.w3.org/2000/svg" viewBox="0 0 481 60">
  <g id="Group_2531" data-name="Group 2531" transform="translate(22186 14340)">
    <rect id="Rectangle_1490" data-name="Rectangle 1490" width="481" height="60" transform="translate(-22186 -14340)" fill="#1c1c1c"/>
    <rect id="Rectangle_997" data-name="Rectangle 997" width="60" height="60" transform="translate(-22006 -14340)" fill="#437cff"/>
    <path id="Path_154" data-name="Path 154" d="M2352.07-227.776v-4.895c0-5.609,5.252-7.036,10.44-8.008,3.727-.713,6.159-1.232,6.159-2.756,0-1.362-1.07-2.107-3.987-2.107-3.405,0-4.864,1.2-4.9,3.339v.129H2352.3v-.195c.163-6.062,4.247-9.239,12.482-9.239,7.976,0,11.314,3.048,11.314,7.555,0,4.15-3.08,5.834-7.845,7-4.281,1.1-7.426,1.459-8.268,2.789h15.788v6.386Z" transform="translate(-24353.908 -14084.188)" fill="#fff"/>
    <path id="Path_155" data-name="Path 155" d="M2416.733-239.122v-.55c0-7.652,5.382-12,13.228-12,7.716,0,13.129,4.311,13.129,11.961v.617c0,7.975-5.252,11.832-13.163,11.832C2421.791-227.257,2416.733-231.016,2416.733-239.122Zm18.674-.064v-.357c0-3.825-2.075-5.577-5.479-5.577-3.5,0-5.479,1.848-5.479,5.543v.39c0,3.566,1.978,5.348,5.446,5.348C2433.332-233.837,2435.407-235.426,2435.407-239.186Z" transform="translate(-24392.664 -14084.093)" fill="#fff"/>
    <path id="Path_156" data-name="Path 156" d="M2352.07-159.455v-4.895c0-5.609,5.252-7.035,10.44-8.009,3.727-.713,6.159-1.232,6.159-2.756,0-1.362-1.07-2.107-3.987-2.107-3.405,0-4.864,1.2-4.9,3.339v.129H2352.3v-.2c.163-6.061,4.247-9.239,12.482-9.239,7.976,0,11.314,3.048,11.314,7.554,0,4.15-3.08,5.834-7.845,7-4.281,1.1-7.426,1.459-8.268,2.789h15.788v6.386Z" transform="translate(-24353.908 -14125.136)" fill="#fff"/>
    <path id="Path_157" data-name="Path 157" d="M2427.74-158.728v-6.84h6.127v-7.164h-4.052v-5.221c2.982-.227,4.538-1.491,5.251-4.02h6.063v16.4h5.544v6.84Z" transform="translate(-24399.26 -14125.863)" fill="#fff"/>
    <rect id="Rectangle_998" data-name="Rectangle 998" width="60" height="60" transform="translate(-22186 -14340)" fill="#fff"/>
    <path id="Path_158" data-name="Path 158" d="M1922.429-202.249a30,30,0,0,1-30-30,30,30,0,0,1,30-30" transform="translate(-24078.43 -14077.751)" fill="#1c1c1c"/>
    <rect id="Rectangle_999" data-name="Rectangle 999" width="60" height="60" transform="translate(-22066 -14340)" fill="#1c1c1c"/>
    <path id="Path_159" data-name="Path 159" d="M2191.932-262.249l30,60,30-60Z" transform="translate(-24257.932 -14077.751)" fill="#fff"/>
    <rect id="Rectangle_1000" data-name="Rectangle 1000" width="60" height="60" transform="translate(-22126 -14340)" fill="#437cff"/>
    <path id="Path_160" data-name="Path 160" d="M2102.18-233.359H2080.6l20.843-5.584-.573-2.141-20.836,5.581,18.682-10.786-1.112-1.924-18.68,10.786,15.253-15.252-1.569-1.569-15.257,15.257,10.789-18.685-1.921-1.111L2075.433-240.1l5.584-20.84-2.143-.574-5.584,20.84v-21.574h-2.219v21.577l-5.585-20.842-2.142.574,5.584,20.838-10.788-18.685-1.921,1.11,10.788,18.687-15.257-15.258-1.569,1.569,15.256,15.256-18.683-10.786-1.111,1.921,18.685,10.786-20.838-5.585-.574,2.143,20.839,5.584h-21.575v2.219h21.572l-20.837,5.582.574,2.143L2064.333-229l-18.69,10.791,1.112,1.922,18.682-10.786-15.255,15.255,1.569,1.566L2067-225.5l-10.785,18.679,1.921,1.113,10.787-18.683-5.583,20.837,2.143.577,5.584-20.841v21.575h2.219v-21.575l5.584,20.84,2.143-.572-5.585-20.843,10.79,18.688,1.92-1.111-10.787-18.684,15.256,15.256,1.569-1.566-15.259-15.26,18.686,10.788,1.112-1.922L2080.036-229l20.836,5.583.573-2.141L2080.6-231.14h21.58Z" transform="translate(-24168.18 -14077.751)" fill="#fff"/>
    <path id="Path_164" data-name="Path 164" d="M1881.869-1928.908c0-3.584,2.3-6.323,5.974-6.323,3.066,0,4.877,1.775,5.138,4.075h-2.508a2.445,2.445,0,0,0-2.63-2.012c-2.3,0-3.4,1.86-3.4,4.261,0,2.469,1.324,4.244,3.414,4.244a2.489,2.489,0,0,0,2.682-2.13h2.474a4.228,4.228,0,0,1-1.376,2.857,5.359,5.359,0,0,1-3.78,1.285A5.9,5.9,0,0,1,1881.869-1928.908Z" transform="translate(-23799.869 -12389.77)" fill="#fff"/>
    <path id="Path_165" data-name="Path 165" d="M1916.672-1928.925c0-3.618,2.334-6.306,6.01-6.306s5.991,2.688,5.991,6.306-2.317,6.29-5.991,6.29S1916.672-1925.307,1916.672-1928.925Zm9.424,0c0-2.418-1.115-4.295-3.4-4.295s-3.449,1.877-3.449,4.295c0,2.4,1.167,4.278,3.449,4.278S1926.1-1926.524,1926.1-1928.925Z" transform="translate(-23822.41 -12389.77)" fill="#fff"/>
    <path id="Path_166" data-name="Path 166" d="M1950.287-1934.56h2.647l2.195,7c.244.794.54,1.927.54,1.927h.035s.3-1.15.54-1.927l2.177-7h2.561l-4.2,12.089h-2.3Z" transform="translate(-23844.182 -12390.204)" fill="#fff"/>
    <path id="Path_167" data-name="Path 167" d="M1983.953-1934.56h9.162v2.063h-6.637v2.705h5.818v2.012h-5.818v3.263h6.688v2.046h-9.214Z" transform="translate(-23865.986 -12390.204)" fill="#fff"/>
    <path id="Path_168" data-name="Path 168" d="M2015.048-1934.56h2.56l4.146,6.746c.4.659.871,1.691.871,1.691h.035s-.069-1.251-.069-2.1v-6.341h2.49v12.089h-2.438l-4.25-6.678c-.4-.643-.888-1.674-.888-1.674h-.035s.07,1.268.07,2.113v6.239h-2.491Z" transform="translate(-23886.127 -12390.204)" fill="#fff"/>
    <path id="Path_169" data-name="Path 169" d="M2047.131-1934.56h10.016v2.063H2053.4v10.026h-2.526V-1932.5h-3.745Z" transform="translate(-23906.906 -12390.204)" fill="#fff"/>
    <path id="Path_170" data-name="Path 170" d="M2079.659-1934.56h5.713c2.4,0,4.006,1.353,4.006,3.365a2.793,2.793,0,0,1-2.282,2.925v.051a2.4,2.4,0,0,1,1.9,2.435c.175,1.707.1,3.009.54,3.2v.118h-2.421c-.313-.135-.348-1.488-.453-2.79-.1-1.319-.871-2.063-2.438-2.063h-2.038v4.853h-2.526Zm2.526,5.343h2.682c1.377,0,2.056-.693,2.056-1.657,0-.98-.645-1.708-1.986-1.708h-2.752Z" transform="translate(-23927.975 -12390.204)" fill="#fff"/>
    <path id="Path_171" data-name="Path 171" d="M2111.489-1927.138l-4.145-7.422h2.752l1.881,3.584c.384.728.819,1.725.819,1.725h.035s.47-1,.836-1.725l1.846-3.584h2.648l-4.146,7.422v4.667h-2.526Z" transform="translate(-23945.904 -12390.204)" fill="#fff"/>
    <path id="Path_172" data-name="Path 172" d="M1883.1-1877.7v-8.2h2.526v8.2c0,1.251.645,2.131,2.334,2.131a2.067,2.067,0,0,0,2.351-2.165v-8.166h2.526v8.2c0,2.587-1.637,4.091-4.825,4.091C1884.794-1873.609,1883.1-1875.08,1883.1-1877.7Z" transform="translate(-23800.67 -12421.721)" fill="#fff"/>
    <path id="Path_173" data-name="Path 173" d="M1916.375-1885.9h2.526v4.818l4.79-4.818h3.135l-4.877,4.835,5.191,7.253h-2.962l-4.006-5.647-1.271,1.251v4.4h-2.526Z" transform="translate(-23822.219 -12421.721)" fill="#fff"/>
    <path id="Path_174" data-name="Path 174" d="M1957.456-1880.249c0-3.584,2.3-6.323,5.974-6.323,3.065,0,4.877,1.775,5.138,4.074h-2.508a2.445,2.445,0,0,0-2.63-2.012c-2.3,0-3.4,1.86-3.4,4.261,0,2.469,1.324,4.244,3.414,4.244a2.489,2.489,0,0,0,2.682-2.13h2.474a4.232,4.232,0,0,1-1.376,2.857,5.357,5.357,0,0,1-3.779,1.285A5.9,5.9,0,0,1,1957.456-1880.249Z" transform="translate(-23848.826 -12421.285)" fill="#fff"/>
    <path id="Path_175" data-name="Path 175" d="M1993.347-1885.9h2.526v12.089h-2.526Z" transform="translate(-23872.072 -12421.721)" fill="#fff"/>
    <path id="Path_176" data-name="Path 176" d="M2004.666-1885.9h10.016v2.062h-3.745v10.026h-2.526v-10.026h-3.745Z" transform="translate(-23879.402 -12421.721)" fill="#fff"/>
    <path id="Path_177" data-name="Path 177" d="M2039.313-1878.478l-4.146-7.422h2.752l1.881,3.584c.383.727.819,1.725.819,1.725h.034s.47-1,.836-1.725l1.846-3.584h2.648l-4.146,7.422v4.666h-2.526Z" transform="translate(-23899.158 -12421.721)" fill="#fff"/>
    <path id="Path_178" data-name="Path 178" d="M2078.522-1880.266c0-3.618,2.334-6.306,6.009-6.306s5.992,2.688,5.992,6.306-2.317,6.289-5.992,6.289S2078.522-1876.648,2078.522-1880.266Zm9.424,0c0-2.418-1.115-4.295-3.4-4.295s-3.448,1.877-3.448,4.295c0,2.4,1.166,4.277,3.448,4.277S2087.946-1877.865,2087.946-1880.266Z" transform="translate(-23927.238 -12421.285)" fill="#fff"/>
    <path id="Path_179" data-name="Path 179" d="M2116.736-1885.9h8.918v2.079h-6.393v2.908h5.417v2.1h-5.417v5h-2.526Z" transform="translate(-23951.988 -12421.721)" fill="#fff"/>
    <path id="Path_180" data-name="Path 180" d="M2156.334-1880.249c0-3.584,2.3-6.323,5.974-6.323,3.066,0,4.877,1.775,5.139,4.074h-2.508a2.445,2.445,0,0,0-2.631-2.012c-2.3,0-3.4,1.86-3.4,4.261,0,2.469,1.324,4.244,3.415,4.244a2.489,2.489,0,0,0,2.682-2.13h2.474a4.23,4.23,0,0,1-1.376,2.857,5.359,5.359,0,0,1-3.78,1.285A5.9,5.9,0,0,1,2156.334-1880.249Z" transform="translate(-23977.635 -12421.285)" fill="#fff"/>
    <path id="Path_181" data-name="Path 181" d="M2191.879-1877.7v-8.2h2.526v8.2c0,1.251.644,2.131,2.334,2.131a2.067,2.067,0,0,0,2.351-2.165v-8.166h2.526v8.2c0,2.587-1.637,4.091-4.825,4.091C2193.568-1873.609,2191.879-1875.08,2191.879-1877.7Z" transform="translate(-24000.656 -12421.721)" fill="#fff"/>
    <path id="Path_182" data-name="Path 182" d="M2224.9-1885.9h2.525v10.043h5.853v2.046H2224.9Z" transform="translate(-24022.045 -12421.721)" fill="#fff"/>
    <path id="Path_183" data-name="Path 183" d="M2244.526-1885.9h10.016v2.062H2250.8v10.026h-2.525v-10.026h-3.745Z" transform="translate(-24034.756 -12421.721)" fill="#fff"/>
    <path id="Path_184" data-name="Path 184" d="M2276.759-1877.7v-8.2h2.525v8.2c0,1.251.645,2.131,2.334,2.131a2.067,2.067,0,0,0,2.351-2.165v-8.166h2.526v8.2c0,2.587-1.638,4.091-4.825,4.091C2278.448-1873.609,2276.759-1875.08,2276.759-1877.7Z" transform="translate(-24055.633 -12421.721)" fill="#fff"/>
    <path id="Path_185" data-name="Path 185" d="M2309.781-1885.9h5.713c2.4,0,4.006,1.352,4.006,3.364a2.794,2.794,0,0,1-2.282,2.925v.051a2.4,2.4,0,0,1,1.9,2.435c.174,1.707.1,3.009.54,3.2v.118h-2.421c-.314-.135-.348-1.488-.453-2.789-.1-1.319-.871-2.063-2.439-2.063h-2.038v4.852h-2.526Zm2.526,5.343h2.682c1.377,0,2.055-.693,2.055-1.657,0-.981-.645-1.708-1.986-1.708h-2.752Z" transform="translate(-24077.02 -12421.721)" fill="#fff"/>
    <path id="Path_186" data-name="Path 186" d="M2341.963-1885.9h9.162v2.062h-6.636v2.7h5.818v2.012h-5.818v3.263h6.688v2.046h-9.214Z" transform="translate(-24097.863 -12421.721)" fill="#fff"/>
    <path id="Path_187" data-name="Path 187" d="M2383.371-1879.017c1.567-1.2,3.275-2.046,3.275-3.6a1.68,1.68,0,0,0-1.725-1.911c-1.271,0-2.038.9-2.073,2.469h-2.3c0-2.756,1.463-4.464,4.425-4.464,2.752,0,4.215,1.758,4.215,3.838,0,2.283-1.6,3.331-3.136,4.328a7.583,7.583,0,0,0-2.526,2.181h5.73v1.961h-8.883C2380.462-1876.532,2381.959-1877.935,2383.371-1879.017Z" transform="translate(-24122.742 -12421.316)" fill="#fff"/>
    <path id="Path_188" data-name="Path 188" d="M2409.047-1880.283c0-3.872,2.055-6.289,5.225-6.289,3.222,0,5.173,2.4,5.173,6.289,0,3.855-1.951,6.306-5.19,6.306C2411.068-1873.977,2409.047-1876.428,2409.047-1880.283Zm7.82,0c0-2.553-.766-4.278-2.595-4.278-1.864,0-2.648,1.708-2.648,4.278,0,2.553.784,4.294,2.648,4.294C2416.119-1875.988,2416.868-1877.7,2416.868-1880.283Z" transform="translate(-24141.313 -12421.285)" fill="#fff"/>
    <path id="Path_189" data-name="Path 189" d="M2444.523-1879.017c1.568-1.2,3.275-2.046,3.275-3.6a1.68,1.68,0,0,0-1.725-1.911c-1.271,0-2.038.9-2.073,2.469h-2.3c0-2.756,1.463-4.464,4.425-4.464,2.752,0,4.215,1.758,4.215,3.838,0,2.283-1.6,3.331-3.135,4.328a7.575,7.575,0,0,0-2.525,2.181h5.73v1.961h-8.883C2441.614-1876.532,2443.112-1877.935,2444.523-1879.017Z" transform="translate(-24162.35 -12421.316)" fill="#fff"/>
    <path id="Path_190" data-name="Path 190" d="M2473.3-1882.345h-2.752v-1.556c1.5-.05,2.822-.541,3.083-2.1h2.16v12.123H2473.3Z" transform="translate(-24181.143 -12421.657)" fill="#fff"/>
  </g>
</svg>
